<?xml version="1.0" standalone="no"?>
<!DOCTYPE svg PUBLIC "-//W3C//DTD SVG 1.1//EN" "http://www.w3.org/Graphics/SVG/1.1/DTD/svg11.dtd" >
<svg xmlns="http://www.w3.org/2000/svg">
<metadata></metadata>
<defs>
<font id="pompadourblack" horiz-adv-x="1433" >
<font-face units-per-em="2048" ascent="1536" descent="-512" />
<missing-glyph horiz-adv-x="624" />
<glyph horiz-adv-x="2048" />
<glyph horiz-adv-x="2048" />
<glyph unicode="&#xd;" />
<glyph unicode=" "  horiz-adv-x="624" />
<glyph unicode="&#x09;" horiz-adv-x="624" />
<glyph unicode="&#xa0;" horiz-adv-x="624" />
<glyph unicode="*" horiz-adv-x="1705" d="M125 778q0 150 57.5 283t155.5 231.5t231 155.5t285 57q150 0 283 -57t231 -155.5t155.5 -231.5t57.5 -283q0 -152 -57.5 -285t-155.5 -231t-231 -155.5t-283 -57.5q-152 0 -285 57.5t-231 155.5t-155.5 231.5t-57.5 284.5zM358 563q0 -12 17 -12h172q14 0 14 12 q0 14 -14 15h-78v387l213 -166l8 30l-227 179h-2v4h-4h-82q-16 0 -17 -17q0 -14 17 -14h67v-403h-67q-17 -1 -17 -15zM522 393q0 -12 15 -12h153q4 0 10.5 4t6.5 8q0 8 -6.5 12.5t-10.5 4.5h-63l43 141h368l39 -141h-63q-12 0 -13 -17q0 -12 13 -12h82h73q12 0 13 12 q0 16 -13 17h-61l-100 340l-25 -21l45 -151h-350l176 589l100 -346l25 19l-107 362h76q16 0 17 15q0 16 -17 16h-192q-16 0 -17 -16q0 -14 17 -15h75l-235 -792h-59q-14 0 -15 -17zM756 741l88 -71q8 -4 18 0l373 295v-387h-78q-14 0 -14 -15q0 -12 14 -12h176q12 0 13 12 q0 14 -13 15h-71v403h71q12 0 13 14q0 16 -13 17h-84h-2q-4 0 -4 -4h-2l-387 -308l-90 68z" />
<glyph unicode="," horiz-adv-x="630" d="M102 197q0 43 17.5 81.5t46.5 67.5t67.5 46.5t81.5 17.5t82 -17.5t68 -46.5t46 -67.5t17 -81.5v-9q-4 -74 -32.5 -138t-76.5 -111.5t-112.5 -75t-138.5 -27.5v33q86 0 160.5 44t117.5 112q-31 -18 -62.5 -29.5t-68.5 -11.5q-43 0 -81.5 17t-67.5 46t-46.5 68t-17.5 82z " />
<glyph unicode="-" horiz-adv-x="843" d="M102 483v385h639v-385h-639z" />
<glyph unicode="." horiz-adv-x="630" d="M102 217q0 43 17.5 82t46.5 67.5t67.5 46t81.5 17.5t82 -17.5t68 -46t46 -67.5t17 -82t-17 -82t-46 -67.5t-68 -46t-82 -17.5t-81.5 17.5t-67.5 46t-46.5 67.5t-17.5 82z" />
<glyph unicode="0" d="M90 614q0 129 32 243t104.5 198t191.5 133t295 49q178 0 299 -49t194.5 -133t105 -198t31.5 -243q0 -133 -24.5 -247.5t-94 -199.5t-192.5 -134t-319 -49q-195 0 -316 49t-189.5 134t-93 199.5t-24.5 247.5zM696 25h41v1171h-41v-1171z" />
<glyph unicode="1" d="M94 0v41h303v852q-123 -25 -262 -25h-41v33h41q168 0 328 49q74 25 196 74q184 86 328 229h49v-1212h303v-41h-303h-639h-303z" />
<glyph unicode="2" d="M94 -16v409q0 86 47 128t119 63.5t154 34t153.5 39t118.5 80t47 155.5q0 57 -23.5 107.5t-61.5 86t-85 56t-92 20.5q-37 0 -60.5 -1t-37.5 -3q-16 -2 -25 -4q49 0 95 -16.5t81 -50t56.5 -83t21.5 -112.5q0 -61 -23.5 -108.5t-60.5 -80t-82 -49t-88 -16.5t-88 17.5t-82 51 t-60.5 80t-23.5 105.5q0 68 28 130t98.5 109.5t191 76t305.5 28.5q184 0 304 -21.5t190.5 -64.5t99 -107.5t28.5 -150.5q0 -111 -50 -173.5t-138 -93t-206 -37.5t-253 -7q-203 0 -314.5 -17.5t-163.5 -44t-61.5 -56.5t-9.5 -54q0 18 17.5 41.5t81 45t185.5 37t331 15.5 q186 0 299.5 14.5t175 33.5t82 37.5t24.5 29.5v-402q0 -53 -17 -102t-51 -89t-81 -63.5t-105 -23.5q-117 0 -221 32.5t-200.5 72.5t-188.5 74t-184 34q-68 0 -112 -54.5t-44 -158.5h-41z" />
<glyph unicode="3" d="M94 328q0 57 23.5 104t60.5 81t82 51.5t88 17.5t88 -16.5t82 -49.5t60.5 -80t23.5 -108q0 -66 -21.5 -114t-56.5 -82t-81 -50t-95 -16q8 -2 25 -5q14 -2 37.5 -3t60.5 -1q45 0 92 20.5t85 56.5t61.5 85t23.5 109q0 70 -24.5 118t-64.5 78.5t-91 47t-107 26.5v41h295 q203 0 313.5 17.5t163 44t62.5 56t10 54.5q0 -18 -16.5 -43t-72.5 -46.5t-163.5 -35.5t-287.5 -14h-304q-115 0 -182 -13.5t-104 -32t-50.5 -38t-15.5 -31.5v410q0 51 17.5 100t51.5 87t80 60.5t105 22.5q117 0 221.5 -34t201.5 -73.5t190.5 -72.5t189.5 -33 q68 0 107.5 54.5t39.5 158.5h41v-401q0 -98 -56 -150.5t-198 -71.5q117 -31 185.5 -94t68.5 -192q0 -86 -28.5 -150.5t-99 -107.5t-190.5 -64.5t-304 -21.5t-305 28.5t-191.5 75.5t-98.5 109.5t-28 130.5z" />
<glyph unicode="4" d="M74 238v41q0 96 23.5 156.5t57 109.5t74.5 98t75 126t57.5 191.5t23.5 292.5h934q0 -164 -52.5 -280.5t-136 -196.5t-192.5 -132t-221.5 -87t-221 -60.5t-192.5 -54t-136 -66.5t-52 -97h565v237q55 8 115 29q51 16 113.5 42.5t123.5 67.5q92 55 153.5 122t92.5 141h41 v-877v-41h-942v41h303v197h-606z" />
<glyph unicode="5" d="M94 328q0 57 23.5 104t60.5 81t82 51.5t88 17.5t88 -16.5t82 -49.5t60.5 -80t23.5 -108q0 -66 -21.5 -114t-56.5 -82t-81 -50t-95 -16q8 -2 25 -5q14 -2 37.5 -3t60.5 -1q45 0 92 20.5t85 56.5t61.5 85t23.5 109q0 63 -31.5 115.5t-84 88t-123 55t-146.5 19.5h-254v631 h41q0 -104 44 -158.5t112 -54.5q94 0 187 33t188.5 72.5t199 73.5t219.5 34q57 0 104.5 -22.5t81.5 -60.5t51 -87t17 -100v-410q-6 12 -28.5 32.5t-85 41t-176 35t-299.5 14.5q-207 0 -328 13.5t-185.5 34t-83 43t-18.5 40.5v-164h557q135 0 253 -8t206 -41t138 -96.5 t50 -173.5q0 -86 -28.5 -150.5t-99 -107.5t-190.5 -64.5t-304 -21.5t-305 28.5t-191.5 75.5t-98.5 109.5t-28 130.5z" />
<glyph unicode="6" d="M94 614q0 289 154.5 456t468.5 167q156 0 266.5 -19.5t181 -57.5t102 -93t31.5 -125q0 -41 -17 -78t-46 -64.5t-68 -45t-82 -17.5q-41 0 -77.5 17.5t-64.5 45t-45 64.5t-17 78q0 74 43 130t129 75h-58q-303 0 -303 -434q14 6 45 12q25 4 67.5 8t108.5 4q76 0 153 -18.5 t137.5 -58t98 -103t37.5 -156.5q0 -98 -28.5 -176t-99 -131t-190.5 -81.5t-304 -28.5q-172 0 -291 35.5t-192.5 112.5t-106.5 197t-33 285zM692 25h41v639h-41v-639z" />
<glyph unicode="7" d="M90 573v410q0 51 17.5 100.5t51.5 87t83 60t110 22.5q113 0 217.5 -33.5t201.5 -73.5t190.5 -73t185.5 -33q68 0 107.5 54.5t39.5 158.5h49v-376q0 -96 -20 -149.5t-51 -91.5t-68 -75t-67.5 -102.5t-51 -173t-20.5 -285.5h-795q0 164 44 273.5t115 180t163 108.5 t187 59.5t187.5 34t164 31t116.5 50t47 90.5q0 -23 -18.5 -46t-83 -44.5t-186 -35t-326.5 -13.5q-188 0 -301 -13t-174.5 -31.5t-83 -38t-23.5 -32.5h-8z" />
<glyph unicode="8" d="M90 360q0 43 16.5 87.5t47 84t74.5 72.5t100 51q-80 31 -126 101.5t-46 144.5q0 70 28.5 131.5t94 107.5t174 71.5t268.5 25.5t268.5 -25.5t174 -71.5t94 -107.5t28.5 -131.5q0 -74 -46 -144.5t-126 -101.5q104 -43 166.5 -126t62.5 -169q0 -78 -24.5 -145.5t-93 -119.5 t-190.5 -81.5t-314 -29.5q-197 0 -319.5 29.5t-192.5 81.5t-94.5 120t-24.5 145zM696 25h41v598h-41v-598zM696 721h41v475h-41v-475z" />
<glyph unicode="9" d="M90 819q0 98 28.5 176t99.5 131.5t192.5 82t310.5 28.5q168 0 286.5 -36t193.5 -112.5t108.5 -194.5t33.5 -280q0 -295 -157.5 -462.5t-464.5 -167.5q-313 0 -451.5 79.5t-138.5 215.5q0 43 17.5 79.5t46 64.5t67.5 44t82 16t82 -16t67.5 -44t46 -64.5t17.5 -79.5 q0 -74 -47 -130.5t-133 -74.5h57q160 0 231.5 109.5t71.5 332.5q-16 -8 -45 -16q-25 -6 -66 -11.5t-102 -5.5q-80 0 -157.5 17.5t-139 57.5t-99.5 104.5t-38 156.5zM696 557h41v639h-41v-639z" />
<glyph unicode=":" horiz-adv-x="622" d="M102 197q0 43 16.5 81.5t44 67.5t66.5 46.5t86 17.5q43 0 80 -17.5t64.5 -46.5t44 -67.5t16.5 -81.5t-16.5 -82t-44 -68t-64.5 -46t-80 -17q-47 0 -86 17t-66.5 46t-44 68t-16.5 82zM102 778q0 86 60.5 145.5t152.5 59.5q43 0 80 -16.5t64.5 -44t44 -64.5t16.5 -80 q0 -92 -59.5 -152.5t-145.5 -60.5q-92 0 -152.5 60.5t-60.5 152.5z" />
<glyph unicode=";" horiz-adv-x="622" d="M102 176q0 -43 16.5 -82t44 -67.5t66.5 -46t86 -17.5q37 0 68 11.5t55 29.5q-43 -68 -114.5 -112t-163.5 -44v-32q74 0 139.5 27.5t114.5 74.5t77.5 111.5t28.5 138.5v8q0 43 -16.5 82t-44 67.5t-64.5 46t-80 17.5q-47 0 -86 -17.5t-66.5 -46t-44 -67.5t-16.5 -82z M102 758q0 86 60.5 145.5t152.5 59.5q43 0 80 -16.5t64.5 -44.5t44 -64.5t16.5 -79.5q0 -92 -59.5 -152.5t-145.5 -60.5q-92 0 -152.5 60.5t-60.5 152.5z" />
<glyph unicode="=" horiz-adv-x="843" d="M102 127v385h639v-385h-639zM102 700v385h639v-385h-639z" />
<glyph unicode="A" d="M90 614q0 129 32 243t104.5 198t191.5 133t295 49q178 0 299 -49t194.5 -133t105 -198t31.5 -243q0 -133 -24.5 -247.5t-94 -199.5t-192.5 -134t-319 -49q-195 0 -316 49t-189.5 134t-93 199.5t-24.5 247.5z" />
<glyph unicode="B" d="M90 614q0 129 32 243t104.5 198t191.5 133t295 49q178 0 299 -49t194.5 -133t105 -198t31.5 -243q0 -133 -24.5 -247.5t-94 -199.5t-192.5 -134t-319 -49q-195 0 -316 49t-189.5 134t-93 199.5t-24.5 247.5z" />
<glyph unicode="C" d="M90 614q0 129 32 243t104.5 198t191.5 133t295 49q178 0 299 -49t194.5 -133t105 -198t31.5 -243q0 -133 -24.5 -247.5t-94 -199.5t-192.5 -134t-319 -49q-195 0 -316 49t-189.5 134t-93 199.5t-24.5 247.5z" />
<glyph unicode="D" d="M90 614q0 129 32 243t104.5 198t191.5 133t295 49q178 0 299 -49t194.5 -133t105 -198t31.5 -243q0 -133 -24.5 -247.5t-94 -199.5t-192.5 -134t-319 -49q-195 0 -316 49t-189.5 134t-93 199.5t-24.5 247.5z" />
<glyph unicode="E" d="M90 614q0 129 32 243t104.5 198t191.5 133t295 49q178 0 299 -49t194.5 -133t105 -198t31.5 -243q0 -133 -24.5 -247.5t-94 -199.5t-192.5 -134t-319 -49q-195 0 -316 49t-189.5 134t-93 199.5t-24.5 247.5z" />
<glyph unicode="F" d="M90 614q0 129 32 243t104.5 198t191.5 133t295 49q178 0 299 -49t194.5 -133t105 -198t31.5 -243q0 -133 -24.5 -247.5t-94 -199.5t-192.5 -134t-319 -49q-195 0 -316 49t-189.5 134t-93 199.5t-24.5 247.5z" />
<glyph unicode="G" d="M90 614q0 129 32 243t104.5 198t191.5 133t295 49q178 0 299 -49t194.5 -133t105 -198t31.5 -243q0 -133 -24.5 -247.5t-94 -199.5t-192.5 -134t-319 -49q-195 0 -316 49t-189.5 134t-93 199.5t-24.5 247.5z" />
<glyph unicode="H" d="M90 614q0 129 32 243t104.5 198t191.5 133t295 49q178 0 299 -49t194.5 -133t105 -198t31.5 -243q0 -133 -24.5 -247.5t-94 -199.5t-192.5 -134t-319 -49q-195 0 -316 49t-189.5 134t-93 199.5t-24.5 247.5z" />
<glyph unicode="I" d="M90 614q0 129 32 243t104.5 198t191.5 133t295 49q178 0 299 -49t194.5 -133t105 -198t31.5 -243q0 -133 -24.5 -247.5t-94 -199.5t-192.5 -134t-319 -49q-195 0 -316 49t-189.5 134t-93 199.5t-24.5 247.5z" />
<glyph unicode="J" d="M90 614q0 129 32 243t104.5 198t191.5 133t295 49q178 0 299 -49t194.5 -133t105 -198t31.5 -243q0 -133 -24.5 -247.5t-94 -199.5t-192.5 -134t-319 -49q-195 0 -316 49t-189.5 134t-93 199.5t-24.5 247.5z" />
<glyph unicode="K" d="M90 614q0 129 32 243t104.5 198t191.5 133t295 49q178 0 299 -49t194.5 -133t105 -198t31.5 -243q0 -133 -24.5 -247.5t-94 -199.5t-192.5 -134t-319 -49q-195 0 -316 49t-189.5 134t-93 199.5t-24.5 247.5z" />
<glyph unicode="L" d="M90 614q0 129 32 243t104.5 198t191.5 133t295 49q178 0 299 -49t194.5 -133t105 -198t31.5 -243q0 -133 -24.5 -247.5t-94 -199.5t-192.5 -134t-319 -49q-195 0 -316 49t-189.5 134t-93 199.5t-24.5 247.5z" />
<glyph unicode="M" d="M90 614q0 129 32 243t104.5 198t191.5 133t295 49q178 0 299 -49t194.5 -133t105 -198t31.5 -243q0 -133 -24.5 -247.5t-94 -199.5t-192.5 -134t-319 -49q-195 0 -316 49t-189.5 134t-93 199.5t-24.5 247.5z" />
<glyph unicode="N" d="M90 614q0 129 32 243t104.5 198t191.5 133t295 49q178 0 299 -49t194.5 -133t105 -198t31.5 -243q0 -133 -24.5 -247.5t-94 -199.5t-192.5 -134t-319 -49q-195 0 -316 49t-189.5 134t-93 199.5t-24.5 247.5z" />
<glyph unicode="O" d="M90 614q0 129 32 243t104.5 198t191.5 133t295 49q178 0 299 -49t194.5 -133t105 -198t31.5 -243q0 -133 -24.5 -247.5t-94 -199.5t-192.5 -134t-319 -49q-195 0 -316 49t-189.5 134t-93 199.5t-24.5 247.5z" />
<glyph unicode="P" d="M90 614q0 129 32 243t104.5 198t191.5 133t295 49q178 0 299 -49t194.5 -133t105 -198t31.5 -243q0 -133 -24.5 -247.5t-94 -199.5t-192.5 -134t-319 -49q-195 0 -316 49t-189.5 134t-93 199.5t-24.5 247.5z" />
<glyph unicode="Q" d="M90 614q0 129 32 243t104.5 198t191.5 133t295 49q178 0 299 -49t194.5 -133t105 -198t31.5 -243q0 -133 -24.5 -247.5t-94 -199.5t-192.5 -134t-319 -49q-195 0 -316 49t-189.5 134t-93 199.5t-24.5 247.5z" />
<glyph unicode="R" d="M90 614q0 129 32 243t104.5 198t191.5 133t295 49q178 0 299 -49t194.5 -133t105 -198t31.5 -243q0 -133 -24.5 -247.5t-94 -199.5t-192.5 -134t-319 -49q-195 0 -316 49t-189.5 134t-93 199.5t-24.5 247.5z" />
<glyph unicode="S" d="M90 614q0 129 32 243t104.5 198t191.5 133t295 49q178 0 299 -49t194.5 -133t105 -198t31.5 -243q0 -133 -24.5 -247.5t-94 -199.5t-192.5 -134t-319 -49q-195 0 -316 49t-189.5 134t-93 199.5t-24.5 247.5z" />
<glyph unicode="T" d="M90 614q0 129 32 243t104.5 198t191.5 133t295 49q178 0 299 -49t194.5 -133t105 -198t31.5 -243q0 -133 -24.5 -247.5t-94 -199.5t-192.5 -134t-319 -49q-195 0 -316 49t-189.5 134t-93 199.5t-24.5 247.5z" />
<glyph unicode="U" d="M90 614q0 129 32 243t104.5 198t191.5 133t295 49q178 0 299 -49t194.5 -133t105 -198t31.5 -243q0 -133 -24.5 -247.5t-94 -199.5t-192.5 -134t-319 -49q-195 0 -316 49t-189.5 134t-93 199.5t-24.5 247.5z" />
<glyph unicode="V" d="M90 614q0 129 32 243t104.5 198t191.5 133t295 49q178 0 299 -49t194.5 -133t105 -198t31.5 -243q0 -133 -24.5 -247.5t-94 -199.5t-192.5 -134t-319 -49q-195 0 -316 49t-189.5 134t-93 199.5t-24.5 247.5z" />
<glyph unicode="W" d="M90 614q0 129 32 243t104.5 198t191.5 133t295 49q178 0 299 -49t194.5 -133t105 -198t31.5 -243q0 -133 -24.5 -247.5t-94 -199.5t-192.5 -134t-319 -49q-195 0 -316 49t-189.5 134t-93 199.5t-24.5 247.5z" />
<glyph unicode="X" d="M90 614q0 129 32 243t104.5 198t191.5 133t295 49q178 0 299 -49t194.5 -133t105 -198t31.5 -243q0 -133 -24.5 -247.5t-94 -199.5t-192.5 -134t-319 -49q-195 0 -316 49t-189.5 134t-93 199.5t-24.5 247.5z" />
<glyph unicode="Y" d="M90 614q0 129 32 243t104.5 198t191.5 133t295 49q178 0 299 -49t194.5 -133t105 -198t31.5 -243q0 -133 -24.5 -247.5t-94 -199.5t-192.5 -134t-319 -49q-195 0 -316 49t-189.5 134t-93 199.5t-24.5 247.5z" />
<glyph unicode="Z" d="M90 614q0 129 32 243t104.5 198t191.5 133t295 49q178 0 299 -49t194.5 -133t105 -198t31.5 -243q0 -133 -24.5 -247.5t-94 -199.5t-192.5 -134t-319 -49q-195 0 -316 49t-189.5 134t-93 199.5t-24.5 247.5z" />
<glyph unicode="_" horiz-adv-x="1931" d="M0 -147h1933v-365h-1933v365z" />
<glyph unicode="a" d="M90 614q0 129 32 243t104.5 198t191.5 133t295 49q178 0 299 -49t194.5 -133t105 -198t31.5 -243q0 -133 -24.5 -247.5t-94 -199.5t-192.5 -134t-319 -49q-195 0 -316 49t-189.5 134t-93 199.5t-24.5 247.5z" />
<glyph unicode="b" d="M90 614q0 129 32 243t104.5 198t191.5 133t295 49q178 0 299 -49t194.5 -133t105 -198t31.5 -243q0 -133 -24.5 -247.5t-94 -199.5t-192.5 -134t-319 -49q-195 0 -316 49t-189.5 134t-93 199.5t-24.5 247.5z" />
<glyph unicode="c" d="M90 614q0 129 32 243t104.5 198t191.5 133t295 49q178 0 299 -49t194.5 -133t105 -198t31.5 -243q0 -133 -24.5 -247.5t-94 -199.5t-192.5 -134t-319 -49q-195 0 -316 49t-189.5 134t-93 199.5t-24.5 247.5z" />
<glyph unicode="d" d="M90 614q0 129 32 243t104.5 198t191.5 133t295 49q178 0 299 -49t194.5 -133t105 -198t31.5 -243q0 -133 -24.5 -247.5t-94 -199.5t-192.5 -134t-319 -49q-195 0 -316 49t-189.5 134t-93 199.5t-24.5 247.5z" />
<glyph unicode="e" d="M90 614q0 129 32 243t104.5 198t191.5 133t295 49q178 0 299 -49t194.5 -133t105 -198t31.5 -243q0 -133 -24.5 -247.5t-94 -199.5t-192.5 -134t-319 -49q-195 0 -316 49t-189.5 134t-93 199.5t-24.5 247.5z" />
<glyph unicode="f" d="M90 614q0 129 32 243t104.5 198t191.5 133t295 49q178 0 299 -49t194.5 -133t105 -198t31.5 -243q0 -133 -24.5 -247.5t-94 -199.5t-192.5 -134t-319 -49q-195 0 -316 49t-189.5 134t-93 199.5t-24.5 247.5z" />
<glyph unicode="g" d="M90 614q0 129 32 243t104.5 198t191.5 133t295 49q178 0 299 -49t194.5 -133t105 -198t31.5 -243q0 -133 -24.5 -247.5t-94 -199.5t-192.5 -134t-319 -49q-195 0 -316 49t-189.5 134t-93 199.5t-24.5 247.5z" />
<glyph unicode="h" d="M90 614q0 129 32 243t104.5 198t191.5 133t295 49q178 0 299 -49t194.5 -133t105 -198t31.5 -243q0 -133 -24.5 -247.5t-94 -199.5t-192.5 -134t-319 -49q-195 0 -316 49t-189.5 134t-93 199.5t-24.5 247.5z" />
<glyph unicode="i" d="M90 614q0 129 32 243t104.5 198t191.5 133t295 49q178 0 299 -49t194.5 -133t105 -198t31.5 -243q0 -133 -24.5 -247.5t-94 -199.5t-192.5 -134t-319 -49q-195 0 -316 49t-189.5 134t-93 199.5t-24.5 247.5z" />
<glyph unicode="j" d="M90 614q0 129 32 243t104.5 198t191.5 133t295 49q178 0 299 -49t194.5 -133t105 -198t31.5 -243q0 -133 -24.5 -247.5t-94 -199.5t-192.5 -134t-319 -49q-195 0 -316 49t-189.5 134t-93 199.5t-24.5 247.5z" />
<glyph unicode="k" d="M90 614q0 129 32 243t104.5 198t191.5 133t295 49q178 0 299 -49t194.5 -133t105 -198t31.5 -243q0 -133 -24.5 -247.5t-94 -199.5t-192.5 -134t-319 -49q-195 0 -316 49t-189.5 134t-93 199.5t-24.5 247.5z" />
<glyph unicode="l" d="M90 614q0 129 32 243t104.5 198t191.5 133t295 49q178 0 299 -49t194.5 -133t105 -198t31.5 -243q0 -133 -24.5 -247.5t-94 -199.5t-192.5 -134t-319 -49q-195 0 -316 49t-189.5 134t-93 199.5t-24.5 247.5z" />
<glyph unicode="m" d="M90 614q0 129 32 243t104.5 198t191.5 133t295 49q178 0 299 -49t194.5 -133t105 -198t31.5 -243q0 -133 -24.5 -247.5t-94 -199.5t-192.5 -134t-319 -49q-195 0 -316 49t-189.5 134t-93 199.5t-24.5 247.5z" />
<glyph unicode="n" d="M90 614q0 129 32 243t104.5 198t191.5 133t295 49q178 0 299 -49t194.5 -133t105 -198t31.5 -243q0 -133 -24.5 -247.5t-94 -199.5t-192.5 -134t-319 -49q-195 0 -316 49t-189.5 134t-93 199.5t-24.5 247.5z" />
<glyph unicode="o" d="M90 614q0 129 32 243t104.5 198t191.5 133t295 49q178 0 299 -49t194.5 -133t105 -198t31.5 -243q0 -133 -24.5 -247.5t-94 -199.5t-192.5 -134t-319 -49q-195 0 -316 49t-189.5 134t-93 199.5t-24.5 247.5z" />
<glyph unicode="p" d="M90 614q0 129 32 243t104.5 198t191.5 133t295 49q178 0 299 -49t194.5 -133t105 -198t31.5 -243q0 -133 -24.5 -247.5t-94 -199.5t-192.5 -134t-319 -49q-195 0 -316 49t-189.5 134t-93 199.5t-24.5 247.5z" />
<glyph unicode="q" d="M90 614q0 129 32 243t104.5 198t191.5 133t295 49q178 0 299 -49t194.5 -133t105 -198t31.5 -243q0 -133 -24.5 -247.5t-94 -199.5t-192.5 -134t-319 -49q-195 0 -316 49t-189.5 134t-93 199.5t-24.5 247.5z" />
<glyph unicode="r" d="M90 614q0 129 32 243t104.5 198t191.5 133t295 49q178 0 299 -49t194.5 -133t105 -198t31.5 -243q0 -133 -24.5 -247.5t-94 -199.5t-192.5 -134t-319 -49q-195 0 -316 49t-189.5 134t-93 199.5t-24.5 247.5z" />
<glyph unicode="s" d="M90 614q0 129 32 243t104.5 198t191.5 133t295 49q178 0 299 -49t194.5 -133t105 -198t31.5 -243q0 -133 -24.5 -247.5t-94 -199.5t-192.5 -134t-319 -49q-195 0 -316 49t-189.5 134t-93 199.5t-24.5 247.5z" />
<glyph unicode="t" d="M90 614q0 129 32 243t104.5 198t191.5 133t295 49q178 0 299 -49t194.5 -133t105 -198t31.5 -243q0 -133 -24.5 -247.5t-94 -199.5t-192.5 -134t-319 -49q-195 0 -316 49t-189.5 134t-93 199.5t-24.5 247.5z" />
<glyph unicode="u" d="M90 614q0 129 32 243t104.5 198t191.5 133t295 49q178 0 299 -49t194.5 -133t105 -198t31.5 -243q0 -133 -24.5 -247.5t-94 -199.5t-192.5 -134t-319 -49q-195 0 -316 49t-189.5 134t-93 199.5t-24.5 247.5z" />
<glyph unicode="v" d="M90 614q0 129 32 243t104.5 198t191.5 133t295 49q178 0 299 -49t194.5 -133t105 -198t31.5 -243q0 -133 -24.5 -247.5t-94 -199.5t-192.5 -134t-319 -49q-195 0 -316 49t-189.5 134t-93 199.5t-24.5 247.5z" />
<glyph unicode="w" d="M90 614q0 129 32 243t104.5 198t191.5 133t295 49q178 0 299 -49t194.5 -133t105 -198t31.5 -243q0 -133 -24.5 -247.5t-94 -199.5t-192.5 -134t-319 -49q-195 0 -316 49t-189.5 134t-93 199.5t-24.5 247.5z" />
<glyph unicode="x" d="M90 614q0 129 32 243t104.5 198t191.5 133t295 49q178 0 299 -49t194.5 -133t105 -198t31.5 -243q0 -133 -24.5 -247.5t-94 -199.5t-192.5 -134t-319 -49q-195 0 -316 49t-189.5 134t-93 199.5t-24.5 247.5z" />
<glyph unicode="y" d="M90 614q0 129 32 243t104.5 198t191.5 133t295 49q178 0 299 -49t194.5 -133t105 -198t31.5 -243q0 -133 -24.5 -247.5t-94 -199.5t-192.5 -134t-319 -49q-195 0 -316 49t-189.5 134t-93 199.5t-24.5 247.5z" />
<glyph unicode="z" d="M90 614q0 129 32 243t104.5 198t191.5 133t295 49q178 0 299 -49t194.5 -133t105 -198t31.5 -243q0 -133 -24.5 -247.5t-94 -199.5t-192.5 -134t-319 -49q-195 0 -316 49t-189.5 134t-93 199.5t-24.5 247.5z" />
<glyph unicode="|" horiz-adv-x="548" d="M102 -66v1604h344v-1604h-344z" />
<glyph unicode="&#xa6;" horiz-adv-x="548" d="M102 -66v744h344v-744h-344zM102 795v743h344v-743h-344z" />
<glyph unicode="&#xad;" horiz-adv-x="843" d="M102 483v385h639v-385h-639z" />
<glyph unicode="&#xb7;" horiz-adv-x="630" d="M102 688q0 43 17.5 82t46.5 67.5t67.5 46t81.5 17.5t82 -17.5t68 -46t46 -67.5t17 -82t-17 -82t-46 -67.5t-68 -46t-82 -17.5t-81.5 17.5t-67.5 46t-46.5 67.5t-17.5 82z" />
<glyph unicode="&#x2000;" horiz-adv-x="804" />
<glyph unicode="&#x2001;" horiz-adv-x="1608" />
<glyph unicode="&#x2002;" horiz-adv-x="804" />
<glyph unicode="&#x2003;" horiz-adv-x="1608" />
<glyph unicode="&#x2004;" horiz-adv-x="536" />
<glyph unicode="&#x2005;" horiz-adv-x="402" />
<glyph unicode="&#x2006;" horiz-adv-x="268" />
<glyph unicode="&#x2007;" horiz-adv-x="268" />
<glyph unicode="&#x2008;" horiz-adv-x="201" />
<glyph unicode="&#x2009;" horiz-adv-x="321" />
<glyph unicode="&#x200a;" horiz-adv-x="89" />
<glyph unicode="&#x2010;" horiz-adv-x="843" d="M102 483v385h639v-385h-639z" />
<glyph unicode="&#x2011;" horiz-adv-x="843" d="M102 483v385h639v-385h-639z" />
<glyph unicode="&#x2012;" horiz-adv-x="843" d="M102 483v385h639v-385h-639z" />
<glyph unicode="&#x2013;" horiz-adv-x="1335" d="M102 483v385h1131v-385h-1131z" />
<glyph unicode="&#x2014;" horiz-adv-x="2138" d="M102 483v385h1934v-385h-1934z" />
<glyph unicode="&#x2018;" horiz-adv-x="630" d="M102 1247v8q2 74 32 138.5t78 111.5t112.5 75t138.5 28v-33q-86 0 -161 -44t-118 -112q31 18 63 29.5t68 11.5q43 0 82 -17.5t68 -46t46 -67.5t17 -82t-17 -82t-46 -67.5t-68 -46t-82 -17.5t-81.5 17.5t-67.5 46t-46.5 67.5t-17.5 82z" />
<glyph unicode="&#x2019;" horiz-adv-x="630" d="M102 1395q0 43 17.5 82t46.5 67.5t67.5 46t81.5 17.5t82 -17.5t68 -46t46 -67.5t17 -82v-9q-4 -74 -32.5 -138t-76.5 -111t-112.5 -75t-138.5 -28v33q86 0 160.5 44t117.5 112q-31 -18 -62.5 -29.5t-68.5 -11.5q-43 0 -81.5 17.5t-67.5 46t-46.5 67.5t-17.5 82z" />
<glyph unicode="&#x2022;" horiz-adv-x="843" d="M102 688q0 63 26 121.5t70 102.5t101 70t123 26q63 0 121.5 -26t102.5 -70t69.5 -102t25.5 -122q0 -66 -25.5 -123t-69.5 -101t-102.5 -69.5t-121.5 -25.5q-66 0 -123 25.5t-101 69.5t-70 101t-26 123z" />
<glyph unicode="&#x2026;" horiz-adv-x="2064" d="M102 197q0 43 17.5 81.5t46.5 67.5t67.5 46.5t81.5 17.5t82 -17.5t68 -46.5t46 -67.5t17 -81.5t-17 -82t-46 -68t-68 -46t-82 -17t-81.5 17t-67.5 46t-46.5 68t-17.5 82zM819 197q0 43 17.5 81.5t46 67.5t67.5 46.5t82 17.5t82 -17.5t67.5 -46.5t46 -67.5t17.5 -81.5 t-17.5 -82t-46 -68t-67.5 -46t-82 -17t-82 17t-67.5 46t-46 68t-17.5 82zM1536 197q0 43 17.5 81.5t46 67.5t67.5 46.5t82 17.5t82 -17.5t67.5 -46.5t46 -67.5t17.5 -81.5t-17.5 -82t-46 -68t-67.5 -46t-82 -17t-82 17t-67.5 46t-46 68t-17.5 82z" />
<glyph unicode="&#x202f;" horiz-adv-x="321" />
<glyph unicode="&#x205f;" horiz-adv-x="402" />
<glyph unicode="&#xe000;" horiz-adv-x="1239" d="M0 0v1239h1239v-1239h-1239z" />
</font>
</defs>
</svg>
